<?xml version='1.0' encoding='iso-8859-1'?>
<!DOCTYPE svg PUBLIC '-//W3C//DTD SVG 1.1//EN' 'http://www.w3.org/Graphics/SVG/1.1/DTD/svg11.dtd'>
<svg version="1.1" xmlns="http://www.w3.org/2000/svg" viewBox="0 0 460 460" xmlns:xlink="http://www.w3.org/1999/xlink" enable-background="new 0 0 460 460">
  <g>
    <path d="m427.358,302.818h-15.128v-168.878c0-27.391-22.285-49.677-49.677-49.677h-3.41c1.361-2.225 2.16-4.83 2.16-7.624 0-8.091-6.582-14.672-14.672-14.672s-14.672,6.581-14.672,14.672c0,2.794 0.799,5.399 2.16,7.624h-18.315c1.361-2.225 2.16-4.83 2.16-7.624 0-8.091-6.582-14.672-14.672-14.672-8.09,0-14.672,6.581-14.672,14.672 0,2.794 0.799,5.399 2.16,7.624h-13.507c1.701-5.225 2.611-11.2 2.702-17.921 0.58-42.405-43.723-64.429-45.61-65.345-2.928-1.424-6.366-1.312-9.214,0.263-2.848,1.577-4.751,4.459-5.098,7.695-0.608,5.659-4.326,21.293-14.099,25.625-16.242,7.196-25.939,23.222-25.939,42.87 0,2.468 0.208,4.732 0.572,6.814h-9.592c1.361-2.225 2.16-4.83 2.16-7.624 0-8.091-6.582-14.672-14.672-14.672-8.09,0-14.672,6.581-14.672,14.672 0,2.794 0.799,5.399 2.16,7.624h-16.74c1.361-2.225 2.16-4.83 2.16-7.624 0-8.091-6.582-14.672-14.672-14.672s-14.672,6.581-14.672,14.672c0,2.794 0.799,5.399 2.16,7.624h-6.764c-27.392,0-49.677,22.285-49.677,49.677v168.878h-15.124c-17.948,0-32.551,14.603-32.551,32.552 0,5.52 4.475,9.996 9.996,9.996s9.996-4.476 9.996-9.996c0-6.925 5.634-12.559 12.559-12.559h187.362v117.198h-35.114c-5.521,0-9.996,4.476-9.996,9.996s4.475,9.996 9.996,9.996h90.221c5.521,0 9.996-4.476 9.996-9.996s-4.475-9.996-9.996-9.996h-35.114v-117.2h187.362c6.925,0 12.559,5.634 12.559,12.559 0,5.52 4.475,9.996 9.996,9.996s9.996-4.476 9.996-9.996c-0.001-17.949-14.604-32.551-32.552-32.551zm-80.727-227.5c0.729,1.42109e-14 1.322,0.593 1.322,1.322s-0.593,1.322-1.322,1.322c-0.729,0-1.322-0.593-1.322-1.322s0.594-1.322 1.322-1.322zm-43.338,0c0.729,0 1.322,0.593 1.322,1.322s-0.593,1.322-1.322,1.322c-0.729,0-1.322-0.593-1.322-1.322s0.593-1.322 1.322-1.322zm-144.807,0c0.729,0 1.322,0.593 1.322,1.322s-0.593,1.322-1.322,1.322-1.322-0.593-1.322-1.322 0.594-1.322 1.322-1.322zm-41.763,0c0.729,0 1.322,0.593 1.322,1.322s-0.593,1.322-1.322,1.322-1.322-0.593-1.322-1.322 0.593-1.322 1.322-1.322zm83.286,2.132c0-6.861 1.824-19.177 14.046-24.592 12.387-5.489 18.948-17.286 22.362-26.97 10.176,7.668 23.826,21.467 23.57,40.181-0.114,8.338-1.819,14.433-5.068,18.194h-53.494c-0.761-1.367-1.416-3.48-1.416-6.813zm-102.562,26.805h265.106c16.368,0 29.685,13.316 29.685,29.685v24.129h-124.796c-24.913,0-45.182,20.268-45.182,45.181v9.925c0,4.438-3.61,8.048-8.048,8.048-4.438,0-8.048-3.61-8.048-8.048v-9.022c0-15.462-12.579-28.041-28.04-28.041-15.462,0-28.04,12.579-28.04,28.041v36.088c0,4.438-3.61,8.048-8.048,8.048-4.438,0-8.048-3.61-8.048-8.048v-26.465c0-30.717-24.991-55.707-55.708-55.707h-10.517v-24.129c0-16.369 13.316-29.685 29.684-29.685zm-29.684,73.806h10.516c19.694,0 35.716,16.022 35.716,35.715v26.465c0,15.461 12.579,28.04 28.04,28.04s28.04-12.579 28.04-28.04v-36.088c0-4.438 3.61-8.049 8.048-8.049 4.438,0 8.048,3.611 8.048,8.049v9.022c0,15.461 12.579,28.04 28.04,28.04 15.461,0 28.04-12.579 28.04-28.04v-9.925c0-13.889 11.3-25.189 25.19-25.189h124.796v124.757h-324.474v-124.757z"/>
    <path d="m369.944,261.888h-89.964c-4.417,0-7.997,3.581-7.997,7.997 0,4.416 3.58,7.997 7.997,7.997h89.964c4.417,0 7.997-3.581 7.997-7.997-5.68434e-14-4.416-3.58-7.997-7.997-7.997z"/>
    <path d="m239.996,261.888h-29.988c-4.417,0-7.997,3.581-7.997,7.997 0,4.416 3.58,7.997 7.997,7.997h29.988c4.417,0 7.997-3.581 7.997-7.997-5.68434e-14-4.416-3.58-7.997-7.997-7.997z"/>
  </g>
</svg>
