<?xml version="1.0" encoding="iso-8859-1"?>
<!-- Generator: Adobe Illustrator 19.0.0, SVG Export Plug-In . SVG Version: 6.00 Build 0)  -->
<svg version="1.1" id="Layer_1" xmlns="http://www.w3.org/2000/svg" xmlns:xlink="http://www.w3.org/1999/xlink" x="0px" y="0px"
	 viewBox="0 0 471.14 471.14" style="enable-background:new 0 0 471.14 471.14;" xml:space="preserve">
<g transform="translate(0 -540.36)">
	<g>
		<g>
			<path d="M282.37,697.9c0,1.8-2.9,7.5-6,11.6c-2.5,3.3-1.9,8,1.4,10.5c1.3,1,2.9,1.5,4.5,1.5l0,0c2.3,0,4.5-1,5.9-2.7
				c2.1-2.8,9.1-12.6,9.1-20.7c0-18.1-12-31.1-24.7-44.9l-0.1-0.1c-9.2-9.5-13.7-22.8-12.6-37.4c1.2-16.2,9.4-31.5,21.8-41
				c22.9-16.9,55.7-13.6,71.6,7.2c7.3,10,10.4,22.6,8.5,34.6c-1.8,10.6-7.3,19.7-15.8,25.7c-8.3,5.9-19,8.4-29.3,6.6
				c-9.3-1.6-17.1-6.4-22.1-13.6c-0.1-0.1-0.1-0.2-0.2-0.3c-4.6-6.1-6.4-14.1-4.8-21.7c1.5-6.9,5.5-12.5,11.4-15.8l0.1-0.1
				c5.8-3.4,13.3-4.4,19.2-2.6c3.9,1.3,6.6,3.5,8.1,6.8c0.1,0.2,0.2,0.4,0.3,0.6c1.7,3,2,7.2,0.6,9.9c-0.7,1.6-1.9,2.4-3.7,2.6
				c-4.1,0.5-7.1,4.2-6.6,8.3s4.2,7.1,8.3,6.6c6.8-0.7,12.4-4.6,15.5-10.7c3.6-7.2,3.3-16.6-0.8-23.9c-3.3-7-9.4-12.1-17.1-14.5
				c-9.9-3-21.8-1.5-31.2,4c-9.7,5.5-16.3,14.6-18.6,25.8c-2.4,11.6,0.4,24.2,7.5,33.6c7.3,10.4,18.6,17.4,31.8,19.6
				c14.3,2.4,29-0.9,40.5-9.2c11.7-8.3,19.5-20.9,21.8-35.5c2.5-16-1.6-32.7-11.3-46l-0.1-0.1c-20.7-27.3-63.1-31.9-92.5-10.2
				c0,0.1-0.1,0.1-0.1,0.1c-15.8,12-26.1,31.4-27.7,51.8c-1.4,18.8,4.5,36.2,16.7,48.9C274.47,677.1,282.37,686.3,282.37,697.9z"/>
			<path d="M137.17,647.9c11.5,2,23.8-0.9,33.6-8.1c9.8-7.1,16.3-17.9,17.8-29.4c1.5-10.9-1.4-21.9-8-30.1
				c-6.2-7.8-15.2-12.5-25.3-13.2c-9.2-0.9-18.7,2.3-25.5,8.4c-5.9,5.3-9.2,12.5-9.2,20.2c0,7.8,4,15.5,10.1,19.8
				c5.3,3.7,11.6,4.5,17.7,2.2c3.8-1.4,5.8-5.7,4.4-9.6c-1.4-3.8-5.7-5.8-9.6-4.4c-1.5,0.6-2.7,0.5-3.9-0.4c-2-1.5-3.6-4.7-3.6-7.5
				c0-4.3,2.3-7.3,4.2-9.1c3.7-3.3,9.1-5.1,14.1-4.6c0.1,0,0.1,0,0.2,0c5.9,0.4,11.1,3.2,14.8,7.7c4,5,5.8,11.8,4.8,18.6v0.1
				c-1,7.5-5.3,14.5-11.8,19.3c-6.6,4.8-14.7,6.8-22.3,5.4c-0.2,0-0.4-0.1-0.6-0.1c-11.4-1.1-18.5-7.5-22.5-12.6
				c-6.3-8.2-9.1-19.3-7.4-29.7c0-0.1,0-0.1,0-0.2c1.4-9.8,6.9-18.8,15.5-25.3c10-7.6,23.2-11.1,35.3-9.4
				c13.4,2.1,25.4,9.9,32.9,21.3c7.1,10.8,9.4,23.3,6.4,35.2c-4.9,15.8-8.6,31.1-0.6,45.4c3.6,6.8,14.3,11.9,17.5,13.3
				c1,0.4,2,0.6,3,0.6c2.9,0,5.6-1.6,6.8-4.6c1.6-3.8-0.1-8.2-3.9-9.9c-4.3-1.9-9.3-5.1-10.2-6.5c-0.1-0.1-0.1-0.2-0.2-0.3
				c-4.7-8.3-3-18.4,1.9-33.9c0-0.1,0.1-0.3,0.1-0.4c4-15.8,1-33.1-8.4-47.3c-9.9-15-25.6-25.1-43.2-27.9h-0.1
				c-16-2.2-33.4,2.4-46.5,12.3c-11.8,8.9-19.4,21.4-21.3,35.1c-2.3,14.6,1.5,29.6,10.4,41.2C112.67,640,124.27,646.5,137.17,647.9z
				"/>
			<path d="M352.77,752.7c-31-8.1-72.6-12.5-117.2-12.5c-44.6,0-86.2,4.5-117.2,12.5c-38.7,10.1-58.3,25.2-58.3,44.7
				c0,57.1,18,110.8,50.6,151c33.1,40.7,77.4,63.1,124.9,63.1s91.8-22.4,124.9-63.1c32.6-40.2,50.6-93.8,50.6-151
				C411.07,777.8,391.47,762.8,352.77,752.7z M235.57,755.1L235.57,755.1c73.3,0,133.7,12.3,153.6,29.7c-0.1,0.1-0.2,0.2-0.3,0.3
				c-6,7-28.1,14-61.5,18.9c0.2-0.9,0.3-1.9,0.3-2.9c0-11.7-13.5-19.9-32.8-19.9s-32.8,8.2-32.8,19.9c0,3.1,0.9,5.9,2.6,8.4
				c-10.1,0.4-20.6,0.6-31.5,0.6c-38.6-0.6-75.1-3.7-102.6-8.6c-30.4-5.5-44.7-12.3-47.9-16.8c-0.1-0.1-0.1-0.2-0.2-0.3
				C102.87,767.3,162.87,755.1,235.57,755.1z M312.57,801.1c-0.7,1.5-6.8,4.9-17.7,4.9c-10.9,0.1-16.9-3.4-17.7-4.9
				c0.7-1.5,6.8-4.9,17.7-4.9C305.87,796.2,311.87,799.7,312.57,801.1z M235.57,996.5L235.57,996.5c-88.3,0-160.2-88.9-160.5-198.4
				c22.8,18.3,94.7,26,158,27h0.1c65.7,0,139-8.2,162.9-26.4C395.47,907.9,323.67,996.5,235.57,996.5z"/>
			<path d="M193.87,804.9c16.1,0,32.8-7.5,32.8-19.9c0-11.7-13.5-19.9-32.8-19.9c-19.3,0-32.8,8.2-32.8,19.9
				C161.17,797.4,177.77,804.9,193.87,804.9z M193.87,780c10.4,0,16.4,3.1,17.6,4.6c-1.6,1.8-7.9,5.2-17.6,5.2
				c-9.6,0-15.9-3.4-17.6-5.2C177.57,783.1,183.57,780,193.87,780z"/>
			<path d="M333.47,909.2c1.3,1,2.9,1.5,4.4,1.5v0c2.3,0,4.6-1.1,6.1-3.1c9.5-12.9,17.7-29,25-49.2c1.4-3.9-0.6-8.2-4.5-9.6
				c-3.9-1.4-8.2,0.6-9.6,4.5c-6.8,18.9-14.4,33.7-23,45.4C329.47,902,330.17,906.7,333.47,909.2z"/>
			<circle cx="319.57" cy="921.998" r="8"/>
		</g>
	</g>
</g>
<g>
</g>
<g>
</g>
<g>
</g>
<g>
</g>
<g>
</g>
<g>
</g>
<g>
</g>
<g>
</g>
<g>
</g>
<g>
</g>
<g>
</g>
<g>
</g>
<g>
</g>
<g>
</g>
<g>
</g>
</svg>
